<svg width="48" height="48" viewBox="0 0 48 48" fill="none" xmlns="http://www.w3.org/2000/svg">
  <!-- Ghost body: solid white -->
  <path d="M44.5944 35.3594C37.1613 31.7601 35.9766 26.203 35.9239 25.7908C35.8601 25.2915 35.7877 24.8989 36.3384 24.391C36.8694 23.9003 39.2253 22.4417 39.879 21.9854C40.9594 21.2297 41.4352 20.4753 41.0845 19.5478C40.8392 18.9062 40.242 18.6646 39.6128 18.6646C39.4144 18.6652 39.2166 18.6874 39.0229 18.7308C37.8358 18.9884 36.683 19.5834 36.0158 19.7441C35.9357 19.7648 35.8533 19.7759 35.7706 19.7772C35.4149 19.7772 35.28 19.619 35.3144 19.1909C35.3977 17.893 35.5743 15.3597 35.3695 12.9933C35.0887 9.73752 34.0389 8.12434 32.7941 6.69763C32.192 6.00574 29.3958 3.03333 23.9997 3.03333C18.6036 3.03333 15.8112 6.00574 15.2127 6.68904C13.9642 8.11575 12.9157 9.72893 12.6373 12.9847C12.4325 15.3511 12.6164 17.8831 12.6925 19.1823C12.717 19.5895 12.5919 19.7687 12.2363 19.7687C12.1535 19.7672 12.0712 19.7561 11.991 19.7355C11.3251 19.5748 10.1723 18.9799 8.98512 18.7222C8.79147 18.6788 8.59368 18.6566 8.39523 18.656C7.76364 18.656 7.16884 18.9013 6.92356 19.5392C6.57282 20.4667 7.0462 21.2211 8.13033 21.9768C8.78399 22.4332 11.1399 23.8905 11.6709 24.3825C12.2203 24.8903 12.1492 25.2829 12.0854 25.7822C12.0327 26.2005 10.8468 31.7577 3.41488 35.3508C2.97951 35.5618 2.23878 36.0084 3.54488 36.7297C5.59539 37.8632 6.96036 37.7418 8.02118 38.4251C8.92134 39.0053 8.38909 40.2566 9.04398 40.7081C9.84849 41.2638 12.2264 40.6688 15.2985 41.6833C17.8739 42.5322 19.4388 44.9305 24.0059 44.9305C28.5729 44.9305 30.1832 42.5212 32.7132 41.6833C35.7791 40.6688 38.162 41.2638 38.9677 40.7081C39.6214 40.2566 39.0904 39.0053 39.9906 38.4251C41.0514 37.7418 42.4151 37.8632 44.4669 36.7297C45.7705 36.017 45.0298 35.5704 44.5944 35.3594Z" fill="white"/>

  <!-- Ghost outline: thicker black stroke -->
  <path d="M44.5944 35.3594C37.1613 31.7601 35.9766 26.203 35.9239 25.7908C35.8601 25.2915 35.7877 24.8989 36.3384 24.391C36.8694 23.9003 39.2253 22.4417 39.879 21.9854C40.9594 21.2297 41.4352 20.4753 41.0845 19.5478C40.8392 18.9062 40.242 18.6646 39.6128 18.6646C39.4144 18.6652 39.2166 18.6874 39.0229 18.7308C37.8358 18.9884 36.683 19.5834 36.0158 19.7441C35.9357 19.7648 35.8533 19.7759 35.7706 19.7772C35.4149 19.7772 35.28 19.619 35.3144 19.1909C35.3977 17.893 35.5743 15.3597 35.3695 12.9933C35.0887 9.73752 34.0389 8.12434 32.7941 6.69763C32.192 6.00574 29.3958 3.03333 23.9997 3.03333C18.6036 3.03333 15.8112 6.00574 15.2127 6.68904C13.9642 8.11575 12.9157 9.72893 12.6373 12.9847C12.4325 15.3511 12.6164 17.8831 12.6925 19.1823C12.717 19.5895 12.5919 19.7687 12.2363 19.7687C12.1535 19.7672 12.0712 19.7561 11.991 19.7355C11.3251 19.5748 10.1723 18.9799 8.98512 18.7222C8.79147 18.6788 8.59368 18.6566 8.39523 18.656C7.76364 18.656 7.16884 18.9013 6.92356 19.5392C6.57282 20.4667 7.0462 21.2211 8.13033 21.9768C8.78399 22.4332 11.1399 23.8905 11.6709 24.3825C12.2203 24.8903 12.1492 25.2829 12.0854 25.7822C12.0327 26.2005 10.8468 31.7577 3.41488 35.3508C2.97951 35.5618 2.23878 36.0084 3.54488 36.7297C5.59539 37.8632 6.96036 37.7418 8.02118 38.4251C8.92134 39.0053 8.38909 40.2566 9.04398 40.7081C9.84849 41.2638 12.2264 40.6688 15.2985 41.6833C17.8739 42.5322 19.4388 44.9305 24.0059 44.9305C28.5729 44.9305 30.1832 42.5212 32.7132 41.6833C35.7791 40.6688 38.162 41.2638 38.9677 40.7081C39.6214 40.2566 39.0904 39.0053 39.9906 38.4251C41.0514 37.7418 42.4151 37.8632 44.4669 36.7297C45.7705 36.017 45.0298 35.5704 44.5944 35.3594Z" fill="none" stroke="black" stroke-width="2"/>
</svg>
